# xmcd
#
# Track frame offsets:
#	150
#	45378
#	76582
#	103076
#	160053
#	186755
#	201603
#	217973
#	245184
#	264846
#	285897
#	317910
#
# Disc length: 4425 seconds
#
# Revision: 0
# Processed by: cddbd v1.5.1PL0 Copyright (c) Steve Scherf et al.
# Submitted via: audiograbber 1.80
#
DISCID=a011470c
DTITLE=Roberto Bellan - Hammond Groove Vol 1
DYEAR=1900
DGENRE=
TTITLE0=Myster B.
TTITLE1=Peepin
TTITLE2=Green onions
TTITLE3=Good morning Emiliano
TTITLE4=Ghost is in my car
TTITLE5=Movin at midnight
TTITLE6=Four hammond floors
TTITLE7=Blues for my friend Fabio S.
TTITLE8=Depression
TTITLE9=Georgia on my mind
TTITLE10=Cissy Strut
TTITLE11=Where is my soul ?
EXTD=
EXTT0=
EXTT1=
EXTT2=
EXTT3=
EXTT4=
EXTT5=
EXTT6=
EXTT7=
EXTT8=
EXTT9=
EXTT10=
EXTT11=
PLAYORDER=
